<?xml version="1.0" encoding="utf-8" ?><svg xmlns="http://www.w3.org/2000/svg" xmlns:xlink="http://www.w3.org/1999/xlink" width="1280" height="1280" viewBox="0 0 1280 1280"><path fill="#472A18" d="M657.774 407.068C662.936 407.665 666.878 408.067 672.052 408.219C674.338 408.436 676.332 408.608 678.626 408.698L680.803 409.178C690.39 413.005 697.962 419.913 701.304 429.907C704.598 436.91 704.715 438.963 705.264 446.661C705.756 450.845 705.785 455.02 705.135 459.194C711.089 460.486 718.505 472.6 715.852 477.999C712.89 482.769 713.511 483.763 714.358 489.34C706.981 500.805 694.456 511.278 684.27 520.925C686.347 524.15 686.918 525.222 689.895 527.833C695.653 530.411 698.475 531.18 702.548 536.141L703.051 538.838L703.621 538.585C705.003 537.47 704.225 537.83 706.125 537.811C709.705 539.546 713.741 541.279 716.868 543.68L716.336 546.282L716.777 546.655L717.447 548.095C719.858 551.235 721.922 555.155 723.572 558.764L725.912 564.595C727.551 569.92 728.547 571.979 727.106 577.434C727.195 580.758 727.596 581.667 728.649 584.864C729.554 588.764 731.422 596.199 731.262 600.101C728.473 607.523 720.191 621.08 727.35 627.026C727.558 632.327 727.78 635.318 726.08 640.503L723.593 646.75C720.911 656.089 716.82 675.427 703.086 671.718C700.491 671.017 698.801 669.96 696.89 668.132C691.692 660.242 692.049 654.968 691.518 645.876C686.528 649.361 686.619 660.774 686.113 666.657C685.605 673.547 685.285 678.528 686.281 685.383C685 687.478 683.089 690.83 681.658 692.687C680.617 695.624 679.938 697.473 679.243 700.55C672.684 700.275 650.737 699.074 645.629 700.013C641.673 701.432 640.167 699.525 635.68 700.788C631.922 705.16 629.079 704.408 623.733 705.405C621.854 705.755 614.649 706.882 613.215 706.556C599.529 703.448 603.55 694.429 587.387 691.869C585.597 692.666 582.486 693.486 580.528 694.068C579.569 688.11 579.472 685.617 576.548 680.281C575.746 676.016 577.211 668.772 577.943 664.29C579.341 655.391 584.747 645.515 583.61 639.112C579.112 645.229 576.645 649.408 570.4 653.918C568.353 653.866 564.671 653.484 563.043 654.355L562.82 654.762C562.13 650.902 559.031 647.181 554.946 647.251L554.114 648.589C553.799 646.386 553.397 645.311 552.724 643.231C550.058 638.947 547.974 633.794 546.125 629.124C543.82 624.776 542.515 621.998 541.244 617.272C541.995 613.512 542.219 612.725 543.812 609.247L546.538 605.654L549.404 606.851L550.384 607.031C551.883 607.317 552.599 607.624 554.023 608.165L555.061 607.84C556.796 606.321 557.681 605.99 559.704 604.976C560.396 602.361 560.384 602.225 562.201 600.323L562.808 598.701C563.524 598.451 564.19 597.74 564.85 597.187L564.57 595.626C566.168 589.913 567.876 589.731 573.048 586.583C574.179 584.087 574.791 581.55 576.01 578.96C577.379 576.052 579.86 572.808 580.907 569.967C578.001 565.815 581.058 557.767 584.165 554.722L585.629 555.22L586.253 554.908C588.447 552.957 590.511 535.076 595.969 531.093C599.819 528.284 601.139 525.816 607.126 524.683C607.883 524.539 610.695 523.002 612.379 522.637L613.22 522.523C616.367 522.124 616.588 522.169 619.295 520.422C620.783 519.585 622.12 519.369 623.773 518.96C624.542 517.551 624.716 516.479 625.099 514.938C623.355 511.873 619.187 506.672 616.979 503.818C613.001 499.477 610.336 492.871 608.316 487.453C609.527 484.43 610.472 480.776 611.391 477.612C610.473 477.036 608.847 476.26 607.831 475.733C607.615 472.807 612.694 458.002 613.977 454.701C615.051 453.923 616.099 453.111 617.12 452.266C624.357 446.169 623.806 439.248 624.559 429.833C627.164 421.17 633.287 417.978 640.904 414.081C642.504 414.265 643.967 414.501 645.575 414.487L646.055 414.225C649.94 411.957 653.795 409.402 657.774 407.068Z"/><path d="M657.774 407.068C662.936 407.665 666.878 408.067 672.052 408.219C674.338 408.436 676.332 408.608 678.626 408.698L680.803 409.178C690.39 413.005 697.962 419.913 701.304 429.907C704.598 436.91 704.715 438.963 705.264 446.661C705.756 450.845 705.785 455.02 705.135 459.194C711.089 460.486 718.505 472.6 715.852 477.999C712.89 482.769 713.511 483.763 714.358 489.34C706.981 500.805 694.456 511.278 684.27 520.925C686.347 524.15 686.918 525.222 689.895 527.833C695.653 530.411 698.475 531.18 702.548 536.141L703.051 538.838L703.621 538.585C705.003 537.47 704.225 537.83 706.125 537.811C709.705 539.546 713.741 541.279 716.868 543.68L716.336 546.282L716.777 546.655L717.447 548.095C719.858 551.235 721.922 555.155 723.572 558.764L725.912 564.595C727.551 569.92 728.547 571.979 727.106 577.434C727.195 580.758 727.596 581.667 728.649 584.864C729.554 588.764 731.422 596.199 731.262 600.101L726.644 600.082C722.51 599.552 717.524 599.526 713.293 599.397L713.202 602.077C711.531 603.781 710.125 605.269 708.297 606.8C706.198 606.844 702.654 606.787 700.717 607.236C699.367 604.512 699.391 605.473 699.607 602.752L699.277 600.103C696.82 597.269 697.681 594.451 694.3 592.705L693.232 593.15C692.139 592.266 691.944 592.242 690.689 591.567L689.181 591.831C686.282 588.267 682.023 586.284 677.673 585.178L677.408 583.914L673.335 584.571C666.399 590.644 669.863 594.15 667.153 601.844C665.872 600.197 665.579 599.082 664.842 597.157L666.044 593.027L666.506 587.957C661.298 587.386 660.97 585.416 658.041 581.393C655.727 578.88 654.329 577.22 652.226 574.524L651.504 573.595C649.376 574.344 649.532 574.381 647.327 574.006L645.365 574.584L645.094 575.817L644.214 576.724C632.299 573.429 632.292 566.078 631.693 555.791C631.238 557.832 630.549 560.52 630.22 562.523L629.428 560.52C629.878 557.097 629.636 554.262 629.475 550.842C629.367 544.13 627.714 540.792 627.394 534.46C627.241 533.198 630.712 532.559 630.44 531.02C629.595 526.228 627.813 523.855 629.509 519.05L629.002 518.016C627.032 518.274 625.715 518.53 623.773 518.96C624.542 517.551 624.716 516.479 625.099 514.938C623.355 511.873 619.187 506.672 616.979 503.818C613.001 499.477 610.336 492.871 608.316 487.453C609.527 484.43 610.472 480.776 611.391 477.612C610.473 477.036 608.847 476.26 607.831 475.733C607.615 472.807 612.694 458.002 613.977 454.701C615.051 453.923 616.099 453.111 617.12 452.266C624.357 446.169 623.806 439.248 624.559 429.833C627.164 421.17 633.287 417.978 640.904 414.081C642.504 414.265 643.967 414.501 645.575 414.487L646.055 414.225C649.94 411.957 653.795 409.402 657.774 407.068Z"/><path fill="#764629" d="M657.774 407.068C662.936 407.665 666.878 408.067 672.052 408.219C674.338 408.436 676.332 408.608 678.626 408.698C677.107 412.15 674.945 413.853 674.244 415.977C674.203 420.678 673.327 426.252 676.217 429.588C676.622 435.399 673.77 432.583 672.66 438.566C675.22 439.131 676.626 439.216 678.739 440.655L678.202 440.654C673.32 440.609 666.683 439.113 662.098 440.535L661.25 441.639C656.027 441.919 653.299 441.869 648.37 443.81C642.795 445.785 638.443 446.99 633.917 450.908L635.536 453.706L636.246 456.089L638.019 456.283L639.153 462.653L637.938 464.311L637.156 462.956C633.849 465.756 632.35 467.46 632.722 472.029L631.425 473.639C631.546 476.193 630.639 477.031 629.142 479.136C630.78 481.214 631.805 482.439 633.665 484.312C632.638 488.451 630.64 491.752 632.474 495.287C634.014 496.199 635.45 496.345 637.181 495.576C637.452 498.866 637.472 500.532 638.57 503.716C636.196 504.275 633.851 504.813 631.496 505.459C630.244 507.198 625.668 513.254 625.099 514.938C623.355 511.873 619.187 506.672 616.979 503.818C613.001 499.477 610.336 492.871 608.316 487.453C609.527 484.43 610.472 480.776 611.391 477.612C610.473 477.036 608.847 476.26 607.831 475.733C607.615 472.807 612.694 458.002 613.977 454.701C615.051 453.923 616.099 453.111 617.12 452.266C624.357 446.169 623.806 439.248 624.559 429.833C627.164 421.17 633.287 417.978 640.904 414.081C642.504 414.265 643.967 414.501 645.575 414.487L646.055 414.225C649.94 411.957 653.795 409.402 657.774 407.068Z"/><path fill="#E74805" d="M657.774 407.068C662.936 407.665 666.878 408.067 672.052 408.219C674.338 408.436 676.332 408.608 678.626 408.698C677.107 412.15 674.945 413.853 674.244 415.977C674.203 420.678 673.327 426.252 676.217 429.588C676.622 435.399 673.77 432.583 672.66 438.566C653.58 433.683 647.868 439.953 630.666 445.507C629.353 442.516 630.339 435.136 630.81 431.767C632.549 429.452 637.23 423.417 639.47 421.817C641.182 420.595 644.182 421.652 646.517 419.445C646.997 417.338 646.399 416.505 645.575 414.487L646.055 414.225C649.94 411.957 653.795 409.402 657.774 407.068Z"/><path fill="#F1D84F" d="M657.774 407.068C662.936 407.665 666.878 408.067 672.052 408.219C674.338 408.436 676.332 408.608 678.626 408.698C677.107 412.15 674.945 413.853 674.244 415.977C671.026 415.159 665.413 413.322 662.533 413.961C662.664 416.508 663.063 417.084 661.311 418.759C658.962 418.679 649.49 416.236 647.973 414.625L646.055 414.225C649.94 411.957 653.795 409.402 657.774 407.068Z"/><path fill="#764629" d="M657.774 407.068C662.936 407.665 666.878 408.067 672.052 408.219C668.471 410.921 654.543 412.497 647.973 414.625L646.055 414.225C649.94 411.957 653.795 409.402 657.774 407.068Z"/><path fill="#260201" d="M616.979 503.818C619.993 498.677 626.404 500.347 623.66 492.212C624.709 490.445 625.616 489.46 625.037 487.505C621.228 488.176 622.56 492.622 618.333 493.895C617.288 492.891 617.645 492.865 617.16 490.999C618.696 486.676 625.315 481.437 629.142 479.136C630.78 481.214 631.805 482.439 633.665 484.312C632.638 488.451 630.64 491.752 632.474 495.287C634.014 496.199 635.45 496.345 637.181 495.576C637.452 498.866 637.472 500.532 638.57 503.716C636.196 504.275 633.851 504.813 631.496 505.459C630.244 507.198 625.668 513.254 625.099 514.938C623.355 511.873 619.187 506.672 616.979 503.818Z"/><path fill="#260201" d="M630.666 445.507C647.868 439.953 653.58 433.683 672.66 438.566C675.22 439.131 676.626 439.216 678.739 440.655L678.202 440.654C673.32 440.609 666.683 439.113 662.098 440.535L661.25 441.639C656.027 441.919 653.299 441.869 648.37 443.81C642.795 445.785 638.443 446.99 633.917 450.908C630.983 455.119 626.333 462.929 623.358 466.169C622.626 462.873 623.881 463.512 623.655 460.358C621.836 459.277 621.398 459.168 619.457 458.461C624.031 455.972 628.814 453.858 631.979 449.727C631.985 445.469 630.962 450.097 629.662 446.625L630.666 445.507Z"/><path fill="#260201" d="M631.425 473.639L630.663 473.162C629.159 467.797 629.614 456.347 635.536 453.706L636.246 456.089L638.019 456.283L639.153 462.653L637.938 464.311L637.156 462.956C633.849 465.756 632.35 467.46 632.722 472.029L631.425 473.639Z"/><path fill="#F1D84F" d="M638.019 456.283L639.153 462.653L637.938 464.311L637.156 462.956C637.52 461.109 636.65 458.116 636.246 456.089L638.019 456.283Z"/><path fill="#F6F4F7" d="M624.559 429.833C627.164 421.17 633.287 417.978 640.904 414.081C641.56 416.474 641.969 416.304 641.187 418.084C635.367 421.342 631.495 423.871 627.17 428.899C626.698 429.448 625.314 429.763 624.559 429.833Z"/><path fill="#510F06" d="M607.831 475.733C612.364 468.257 613.308 470.853 615.595 461.744C616.567 462.512 616.922 466.409 616.993 467.775L612.2 477.699L611.391 477.612C610.473 477.036 608.847 476.26 607.831 475.733Z"/><path fill="#510F06" d="M623.358 466.169C621.896 467.346 622.704 467.054 620.871 467.127C618.386 465.155 617.893 461.09 619.457 458.461C621.398 459.168 621.836 459.277 623.655 460.358C623.881 463.512 622.626 462.873 623.358 466.169Z"/><path fill="#260201" d="M617.903 469.655C624.196 472.204 621.127 479.892 619.303 484.509C612.112 478.806 619.875 479.728 617.903 469.655Z"/><path d="M678.626 408.698L680.803 409.178C690.39 413.005 697.962 419.913 701.304 429.907C704.598 436.91 704.715 438.963 705.264 446.661C705.756 450.845 705.785 455.02 705.135 459.194C703.736 458.602 702.497 458.094 701.067 457.56C696.306 458.749 697.017 458.635 693.78 455.268L693.272 457.636L690.145 464.922L688.468 463.296C684.367 476.47 675.172 468.993 669.276 462.565L666.919 464.57C667.559 467.192 667.647 468.038 667.784 470.741L668.236 471.515C667.169 473.952 667.202 472.786 667.788 475.108L670.089 477.258L671.051 478.604C668.27 482.698 671.025 480.15 670.967 484.079C667.018 486.641 651.107 483.434 646.535 481.951C647.564 478.933 649.013 476.184 647.809 473.323C645.245 470.992 637.251 472.621 632.722 472.029C632.35 467.46 633.849 465.756 637.156 462.956L637.938 464.311L639.153 462.653L638.019 456.283L636.246 456.089L635.536 453.706L633.917 450.908C638.443 446.99 642.795 445.785 648.37 443.81C653.299 441.869 656.027 441.919 661.25 441.639L662.098 440.535C666.683 439.113 673.32 440.609 678.202 440.654L678.739 440.655C676.626 439.216 675.22 439.131 672.66 438.566C673.77 432.583 676.622 435.399 676.217 429.588C673.327 426.252 674.203 420.678 674.244 415.977C674.945 413.853 677.107 412.15 678.626 408.698Z"/><path fill="#842753" d="M678.626 408.698L680.803 409.178C690.39 413.005 697.962 419.913 701.304 429.907C704.598 436.91 704.715 438.963 705.264 446.661C700.962 444.202 700.16 444.748 694.965 444.733C692.969 445.853 693.775 445.92 692.153 445.615C692.441 444.471 692.69 443.528 693.042 442.395L693.338 441.463C688.834 443.69 684.712 444.644 681.582 439.811C680.382 440.591 680.172 440.67 678.739 440.655C676.626 439.216 675.22 439.131 672.66 438.566C673.77 432.583 676.622 435.399 676.217 429.588C673.327 426.252 674.203 420.678 674.244 415.977C674.945 413.853 677.107 412.15 678.626 408.698Z"/><path fill="#981B03" d="M678.626 408.698L680.803 409.178L680.977 409.863C682.77 416.656 684.472 413.51 685.94 417.896C683.549 420.388 682.138 418.074 680.4 420.361C681.764 423.729 682.879 423.603 682.989 426.524L682.069 427.868C680.115 428.193 679.817 428.095 677.888 427.95L676.217 429.588C673.327 426.252 674.203 420.678 674.244 415.977C674.945 413.853 677.107 412.15 678.626 408.698Z"/><path fill="#3A0B05" d="M701.304 429.907C704.598 436.91 704.715 438.963 705.264 446.661C700.962 444.202 700.16 444.748 694.965 444.733C696.588 443.044 698.268 441.118 699.858 439.371C700.083 435.334 700.067 433.874 701.304 429.907Z"/><path fill="#F6F4F7" d="M658.91 454.111L660.643 452.466C660.617 454.178 660.501 455.998 660.783 457.671C662.163 455.23 661.85 454.876 663.908 453.65L665.066 453.895C665.639 458.769 653.852 466.685 658.343 471.124C660.178 470.229 660.846 469.398 662.289 467.991C664.16 469.302 662.186 469.993 664.644 471.759C666.204 471.42 666.367 471.431 667.784 470.741L668.236 471.515C667.169 473.952 667.202 472.786 667.788 475.108L670.089 477.258L671.051 478.604C668.27 482.698 671.025 480.15 670.967 484.079C667.018 486.641 651.107 483.434 646.535 481.951C647.564 478.933 649.013 476.184 647.809 473.323C645.245 470.992 637.251 472.621 632.722 472.029C632.35 467.46 633.849 465.756 637.156 462.956L637.938 464.311L639.153 462.653C647.682 471.925 656.004 463.456 658.91 454.111Z"/><path fill="#986B45" d="M658.91 454.111L660.643 452.466C660.617 454.178 660.501 455.998 660.783 457.671C660.273 459.316 657.883 463.644 656.776 464.531C654.228 465.546 651.705 466.626 649.211 467.77C646.596 467.463 642.491 466.86 639.997 467.045C638.491 466.131 638.642 465.992 637.938 464.311L639.153 462.653C647.682 471.925 656.004 463.456 658.91 454.111Z"/><path fill="#3A0B05" d="M649.211 467.77C651.705 466.626 654.228 465.546 656.776 464.531C652.54 471.39 649.117 473.224 641.905 468.383C641.259 467.952 640.623 467.505 639.997 467.045C642.491 466.86 646.596 467.463 649.211 467.77Z"/><path d="M669.276 462.565C669.246 458.406 668.706 457.095 671.719 453.739C677.065 447.785 690.096 452.135 688.985 460.354C688.846 461.34 688.674 462.322 688.468 463.296C684.367 476.47 675.172 468.993 669.276 462.565Z"/><path d="M638.019 456.283C640.553 444.609 652.904 444.796 658.91 454.111C656.004 463.456 647.682 471.925 639.153 462.653L638.019 456.283Z"/><path fill="#F1D84F" d="M633.917 450.908C638.443 446.99 642.795 445.785 648.37 443.81C652.446 445.542 662.081 447.435 666.884 448.509C667.393 451.354 667.773 450.292 666.571 452.094C664.954 452.221 661.872 452.058 660.643 452.466L658.91 454.111C652.904 444.796 640.553 444.609 638.019 456.283L636.246 456.089L635.536 453.706L633.917 450.908Z"/><path fill="#F5AE5D" d="M668.507 451.877C672.102 450.076 674.06 449.364 677.824 448.04C683.488 449.384 689.338 451.431 693.78 455.268L693.272 457.636L690.145 464.922L688.468 463.296C688.674 462.322 688.846 461.34 688.985 460.354C690.096 452.135 677.065 447.785 671.719 453.739C668.706 457.095 669.246 458.406 669.276 462.565L666.919 464.57C666.05 459.246 666.952 456.883 668.507 451.877Z"/><path fill="#F6F4F7" d="M661.25 441.639C670.333 442.699 672.202 442.988 680.405 446.738C675.546 446.92 671.598 447.055 666.884 448.509C662.081 447.435 652.446 445.542 648.37 443.81C653.299 441.869 656.027 441.919 661.25 441.639Z"/><path fill="#472A18" d="M725.912 564.595C727.551 569.92 728.547 571.979 727.106 577.434C727.195 580.758 727.596 581.667 728.649 584.864C729.554 588.764 731.422 596.199 731.262 600.101L726.644 600.082C722.51 599.552 717.524 599.526 713.293 599.397L713.202 602.077C711.531 603.781 710.125 605.269 708.297 606.8C706.198 606.844 702.654 606.787 700.717 607.236C699.367 604.512 699.391 605.473 699.607 602.752L699.277 600.103C696.82 597.269 697.681 594.451 694.3 592.705L693.232 593.15C692.139 592.266 691.944 592.242 690.689 591.567C691.127 589.568 692.631 587.146 693.642 585.284C696.01 581.996 697.06 579.594 698.572 575.914C699.715 574.801 700.489 570.816 702.224 568.313L702.398 567.522C705.049 566.975 704.063 567.662 705.512 565.476C707.409 567.944 707.03 566.083 709.926 568.02C710.764 570.112 710.679 570.064 712.281 571.845C715.389 572.427 719.186 570.042 721.48 568.004L720.68 565.544L721.018 565.083C723.335 566.613 723.407 566.296 725.912 564.595Z"/><path fill="#FCFCFB" d="M702.224 568.313L704.156 568.485C706.082 571.748 701.324 575.943 700.587 580.555C702.378 579.169 703.757 577.679 705.904 577.566C707.55 578.386 707.483 578.272 708.415 579.844C708.114 584.776 707.825 589.494 710.681 593.914L711.923 596.5L713.293 599.397L713.202 602.077C711.531 603.781 710.125 605.269 708.297 606.8C706.198 606.844 702.654 606.787 700.717 607.236C699.367 604.512 699.391 605.473 699.607 602.752L699.277 600.103C696.82 597.269 697.681 594.451 694.3 592.705L693.232 593.15C692.139 592.266 691.944 592.242 690.689 591.567C691.127 589.568 692.631 587.146 693.642 585.284C696.01 581.996 697.06 579.594 698.572 575.914C699.715 574.801 700.489 570.816 702.224 568.313Z"/><path fill="#260201" d="M702.224 568.313L704.156 568.485C706.082 571.748 701.324 575.943 700.587 580.555C699.285 589.141 700.617 595.718 699.607 602.752L699.277 600.103C696.82 597.269 697.681 594.451 694.3 592.705L693.232 593.15C692.139 592.266 691.944 592.242 690.689 591.567C691.127 589.568 692.631 587.146 693.642 585.284C696.01 581.996 697.06 579.594 698.572 575.914C699.715 574.801 700.489 570.816 702.224 568.313Z"/><path fill="#260201" d="M721.669 597.243C723.867 593.399 725.959 588.08 728.649 584.864C729.554 588.764 731.422 596.199 731.262 600.101L726.644 600.082C722.51 599.552 717.524 599.526 713.293 599.397L711.923 596.5C715.492 596.025 718.116 596.677 721.669 597.243Z"/><path fill="#764629" d="M708.415 579.844C715.568 584.406 716.567 587.444 710.681 593.914C707.825 589.494 708.114 584.776 708.415 579.844Z"/><path fill="#543721" d="M725.912 564.595C727.551 569.92 728.547 571.979 727.106 577.434C725.125 573.654 724.44 571.008 721.48 568.004L720.68 565.544L721.018 565.083C723.335 566.613 723.407 566.296 725.912 564.595Z"/><path fill="#FCFCFB" d="M703.621 538.585C705.003 537.47 704.225 537.83 706.125 537.811C709.705 539.546 713.741 541.279 716.868 543.68L716.336 546.282L716.777 546.655L717.447 548.095C719.858 551.235 721.922 555.155 723.572 558.764L725.912 564.595C723.407 566.296 723.335 566.613 721.018 565.083L720.68 565.544L721.48 568.004C719.186 570.042 715.389 572.427 712.281 571.845C710.679 570.064 710.764 570.112 709.926 568.02C707.03 566.083 707.409 567.944 705.512 565.476C704.063 567.662 705.049 566.975 702.398 567.522C699.543 566.094 696.663 564.228 693.925 562.552C693.452 561.961 691.828 560.399 691.212 559.772C693.17 557.383 693.429 557.326 696.285 557.152C696.41 555.305 695.903 552.882 695.831 550.842L695.902 549.928L695.171 549.376L696.97 547.706L693.347 546.414C691.818 544.538 692.234 545.6 692.194 543.067L693.424 540.11C696.195 538.657 698.104 540.573 700.641 542.141L703.051 538.838L703.621 538.585Z"/><path fill="#764629" d="M703.621 538.585C705.003 537.47 704.225 537.83 706.125 537.811C709.705 539.546 713.741 541.279 716.868 543.68L716.336 546.282L716.777 546.655C715.141 548.072 714.389 549.291 711.993 549.069L710.845 551.526C707.434 552.36 703.185 548.931 700.412 547.153L696.97 547.706L693.347 546.414C691.818 544.538 692.234 545.6 692.194 543.067L693.424 540.11C696.195 538.657 698.104 540.573 700.641 542.141L703.051 538.838L703.621 538.585Z"/><path fill="#F6F4F7" d="M702.056 545.019C702.983 545.783 709.19 547.55 711.993 549.069L710.845 551.526C707.434 552.36 703.185 548.931 700.412 547.153L702.056 545.019Z"/><path fill="#FCFCFB" d="M692.194 543.067C695.853 543.173 698.73 543.292 702.056 545.019L700.412 547.153L696.97 547.706L693.347 546.414C691.818 544.538 692.234 545.6 692.194 543.067Z"/><path fill="#B0A096" d="M703.621 538.585C705.003 537.47 704.225 537.83 706.125 537.811C709.705 539.546 713.741 541.279 716.868 543.68L716.336 546.282C712.931 543.601 707.611 541.101 703.621 538.585Z"/><path fill="#3A0B05" d="M695.831 550.842C698.274 552.723 698.776 553.193 701.525 554.441L703.282 554.679C705.66 557.925 712.37 563.11 712.89 566.178C711.869 568.028 712.628 567.237 709.926 568.02C707.03 566.083 707.409 567.944 705.512 565.476C704.063 567.662 705.049 566.975 702.398 567.522C699.543 566.094 696.663 564.228 693.925 562.552C693.452 561.961 691.828 560.399 691.212 559.772C693.17 557.383 693.429 557.326 696.285 557.152C696.41 555.305 695.903 552.882 695.831 550.842Z"/><path fill="#F6F4F7" d="M691.212 559.772C693.17 557.383 693.429 557.326 696.285 557.152C699.169 560.403 702.403 562.513 705.512 565.476C704.063 567.662 705.049 566.975 702.398 567.522C699.543 566.094 696.663 564.228 693.925 562.552C693.452 561.961 691.828 560.399 691.212 559.772Z"/><path fill="#B0A096" d="M711.993 549.069C714.389 549.291 715.141 548.072 716.777 546.655L717.447 548.095C719.858 551.235 721.922 555.155 723.572 558.764L725.912 564.595C723.407 566.296 723.335 566.613 721.018 565.083C718.811 562.268 712.862 553.217 710.845 551.526L711.993 549.069Z"/><path fill="#FCFCFB" d="M717.447 548.095C719.858 551.235 721.922 555.155 723.572 558.764C721.385 558.36 717.095 557.298 716.306 555.178C717.673 550.329 718.2 553.162 717.447 548.095Z"/><path fill="#543721" d="M700.412 547.153C703.185 548.931 707.434 552.36 710.845 551.526C712.862 553.217 718.811 562.268 721.018 565.083L720.68 565.544L718.504 564.124C712.786 560.471 710.007 556.174 705.019 552.821L701.525 554.441C698.776 553.193 698.274 552.723 695.831 550.842L695.902 549.928L695.171 549.376L696.97 547.706L700.412 547.153Z"/><path fill="#F6F4F7" d="M695.902 549.928C700.623 549.643 701.321 549.874 705.019 552.821L701.525 554.441C698.776 553.193 698.274 552.723 695.831 550.842L695.902 549.928Z"/><path fill="#510F06" d="M688.709 553.77C690.217 555.854 690.091 556.879 690.423 559.546L691.212 559.772C691.828 560.399 693.452 561.961 693.925 562.552C696.663 564.228 699.543 566.094 702.398 567.522L702.224 568.313C700.489 570.816 699.715 574.801 698.572 575.914C697.06 579.594 696.01 581.996 693.642 585.284C692.631 587.146 691.127 589.568 690.689 591.567L689.181 591.831C686.282 588.267 682.023 586.284 677.673 585.178L677.408 583.914L673.335 584.571C666.594 578.612 677.484 566.132 679.701 559.881C680.174 558.545 680.374 558.104 681.291 556.932C683.157 558.642 683.956 559.612 686.556 559.05C688.2 557.379 688.214 556.079 688.709 553.77Z"/><defs><linearGradient id="gradient_0" gradientUnits="userSpaceOnUse" x1="692.80164" y1="573.19397" x2="682.297" y2="580.08154"><stop offset="0" stop-color="#582D24"/><stop offset="1" stop-color="#73422C"/></linearGradient></defs><path fill="url(#gradient_0)" d="M685.608 570.674L686.65 569.711C689.032 570.134 690.458 571.311 692.513 572.62C693.609 573.477 696.149 575.353 696.952 576.275L698.572 575.914C697.06 579.594 696.01 581.996 693.642 585.284C692.631 587.146 691.127 589.568 690.689 591.567L689.181 591.831C686.282 588.267 682.023 586.284 677.673 585.178L677.408 583.914C676.737 582.522 676.046 581.139 675.336 579.766C676.589 577.063 675.727 580.306 678.918 577.088C678.809 575.084 678.597 573.184 679.607 571.51C682.14 570.345 682.711 571.627 685.608 570.674Z"/><path fill="#6F230E" d="M678.918 577.088C679.626 577.595 680.905 578.357 681.285 579.014C685.067 581.423 688.911 583.99 693.323 585.057L693.642 585.284C692.631 587.146 691.127 589.568 690.689 591.567L689.181 591.831C686.282 588.267 682.023 586.284 677.673 585.178L677.408 583.914C676.737 582.522 676.046 581.139 675.336 579.766C676.589 577.063 675.727 580.306 678.918 577.088Z"/><path fill="#8E7973" d="M681.285 579.014C684.886 577.333 692.035 582.172 693.323 585.057C688.911 583.99 685.067 581.423 681.285 579.014Z"/><path fill="#8E7973" d="M685.608 570.674L686.65 569.711C689.032 570.134 690.458 571.311 692.513 572.62C693.609 573.477 696.149 575.353 696.952 576.275C693.586 575.947 688.161 572.968 685.608 570.674Z"/><path fill="#3A0B05" d="M693.925 562.552C696.663 564.228 699.543 566.094 702.398 567.522L702.224 568.313C700.489 570.816 699.715 574.801 698.572 575.914L696.952 576.275C696.149 575.353 693.609 573.477 692.513 572.62C697.695 566.852 692.387 569.116 693.925 562.552Z"/><path fill="#F6F4F7" d="M637.699 491.844C640.233 492.792 639.949 493.146 640.318 496.057L640.699 493.747L641.579 493.25L642.685 492.745C643.702 494.863 643.041 494.569 644.352 495.168C651.419 498.395 651.657 501.517 660.497 503.007L662.299 504.79L661.626 504.822C658.627 504.935 654.905 504.045 652.544 504.393C657.391 506.041 660.721 506.454 665.705 506.803C656.022 510.128 648.735 503.68 645.715 505.427C648.286 511.029 659.199 510.351 664.067 513.352C665.559 514.272 665.251 515.699 665.357 517.436C666.645 517.14 666.927 515.746 669.349 514.749L669.33 516.308C665.599 521.209 649.774 518.004 644.479 517.014C642.059 512.57 640.929 507.895 638.57 503.716C637.472 500.532 637.452 498.866 637.181 495.576L637.699 491.844Z"/><path fill="#808081" d="M640.318 496.057L640.699 493.747L641.579 493.25C641.906 496.614 642.241 498.113 641.558 501.458C640.674 500.741 640.396 497.267 640.318 496.057Z"/><path fill="#260201" d="M645.172 519.335C656.115 522.726 649.73 528.929 659.816 535.799C660.439 538.752 659.783 539.767 660.102 542.343C660.138 544.69 660.084 543.999 658.478 546.347C656.705 554.07 648.808 551.273 642.561 550.362C642.292 545.491 642.872 530.639 646.766 527.355C647.128 523.998 646.444 522.438 645.172 519.335Z"/><path fill="#F6F4F7" d="M642.561 550.362C642.292 545.491 642.872 530.639 646.766 527.355C647.456 530.41 649.564 546.219 650.148 547.214C654.03 547.014 653.091 542.826 660.102 542.343C660.138 544.69 660.084 543.999 658.478 546.347C656.705 554.07 648.808 551.273 642.561 550.362Z"/><path fill="#4BB8F6" d="M658.478 546.347C661.187 547.565 660.598 546.835 661.874 549.037C662.036 551.45 660.908 553.248 659.882 555.462C658.696 557.978 651.943 571.866 651.504 573.595C649.376 574.344 649.532 574.381 647.327 574.006L645.365 574.584L643.133 566.382C642.062 562.434 640.94 556.342 640.549 552.279L641.798 551.921L642.561 550.362C648.808 551.273 656.705 554.07 658.478 546.347Z"/><path fill="#262629" d="M640.549 552.279L641.798 551.921L642.664 554.875C643.88 560.687 645.344 568.529 647.327 574.006L645.365 574.584L643.133 566.382C642.062 562.434 640.94 556.342 640.549 552.279Z"/><path fill="#543721" d="M693.78 455.268C697.017 458.635 696.306 458.749 701.067 457.56C702.497 458.094 703.736 458.602 705.135 459.194C711.089 460.486 718.505 472.6 715.852 477.999C712.762 473.452 710.333 467.408 707.892 462.371C707.256 466.521 705.132 483.305 703.873 485.826L702.917 486.29C694.79 480.911 712.472 465.423 698.749 461.422L699.081 462.191L699.533 463.287C704.144 473.717 692.141 481.528 697.192 487.892C694.364 488.403 693.554 488.034 691.819 489.643C691.932 491.616 692.314 492.041 693.17 493.826C690.912 492.419 692.083 491.762 689.756 491.212C689.182 483.887 696.157 475.031 698.736 465.872C696.952 463.101 695.131 460.356 693.272 457.636L693.78 455.268Z"/><path fill="#54C1F6" d="M632.542 545.391C634.032 544.285 635.255 543.366 636.677 542.148C636.084 539.72 634.859 538.235 635.581 537.004C637.63 537.295 636.621 536.944 638.45 538.742C639.346 541.549 639.713 544.322 639.132 547.245L640.549 552.279C640.94 556.342 642.062 562.434 643.133 566.382L645.365 574.584L645.094 575.817L644.214 576.724C632.299 573.429 632.292 566.078 631.693 555.791L632.542 545.391Z"/><path fill="#4BB8F6" d="M635.232 557.047C636.168 552.975 636.54 550.516 639.132 547.245L640.549 552.279C640.94 556.342 642.062 562.434 643.133 566.382C642.084 566.534 641.425 566.548 640.368 566.6C637.637 564.387 639.973 561.777 635.232 557.047Z"/><path fill="#3A0B05" d="M671.439 562.607C677.204 563.48 676.022 557.988 680.358 556.006L681.291 556.932C680.374 558.104 680.174 558.545 679.701 559.881C677.484 566.132 666.594 578.612 673.335 584.571C666.399 590.644 669.863 594.15 667.153 601.844C665.872 600.197 665.579 599.082 664.842 597.157L666.044 593.027L666.506 587.957C661.298 587.386 660.97 585.416 658.041 581.393C661.698 578.844 665.242 576.479 668.168 573.119C668.988 569.129 669.69 566.736 670.928 562.853L671.439 562.607Z"/><path fill="#2480DC" d="M658.041 581.393C661.698 578.844 665.242 576.479 668.168 573.119C667.716 578.076 667.162 583.023 666.506 587.957C661.298 587.386 660.97 585.416 658.041 581.393Z"/><path fill="#4BB8F6" d="M659.725 560.728C661.381 559.967 662.359 559.259 664.107 559.598C666.965 562.322 665.472 562.711 668.413 563.895L670.928 562.853C669.69 566.736 668.988 569.129 668.168 573.119C665.242 576.479 661.698 578.844 658.041 581.393C655.727 578.88 654.329 577.22 652.226 574.524C655.409 569.891 657.295 565.741 659.725 560.728Z"/><path fill="#3A0B05" d="M684.27 520.925C686.347 524.15 686.918 525.222 689.895 527.833C695.653 530.411 698.475 531.18 702.548 536.141L703.051 538.838L700.641 542.141C698.104 540.573 696.195 538.657 693.424 540.11L692.789 539.811L690.82 541.155C688.675 541.302 689.783 541.432 687.475 539.802C689.187 535.302 684.166 529.723 680.669 527.402C682.006 524.155 682.117 523.586 684.27 520.925Z"/><path fill="#510F06" d="M689.895 527.833C695.653 530.411 698.475 531.18 702.548 536.141L703.051 538.838L700.641 542.141C698.885 535.101 690.192 537.314 689.895 527.833Z"/><path fill="#764629" d="M632.542 545.391C632.131 534.326 641.266 530.61 644.067 519.813L645.172 519.335C646.444 522.438 647.128 523.998 646.766 527.355C642.872 530.639 642.292 545.491 642.561 550.362L641.798 551.921L640.549 552.279L639.132 547.245C639.713 544.322 639.346 541.549 638.45 538.742C636.621 536.944 637.63 537.295 635.581 537.004C634.859 538.235 636.084 539.72 636.677 542.148C635.255 543.366 634.032 544.285 632.542 545.391Z"/><path fill="#2480DC" d="M659.725 560.728C661.246 556.584 666.223 541.749 672.765 545.438C674.485 548.601 673.117 557.386 672.161 560.515C671.94 561.219 671.699 561.917 671.439 562.607L670.928 562.853L668.413 563.895C665.472 562.711 666.965 562.322 664.107 559.598C662.359 559.259 661.381 559.967 659.725 560.728Z"/><path fill="#543721" d="M689.756 491.212C692.083 491.762 690.912 492.419 693.17 493.826C694.312 496.008 693.731 497.547 694.364 500.036C692.979 502.707 691.946 505.622 689.229 506.581C687.596 504.761 688.123 502.533 688.203 499.76L689.054 496.755C688.614 495.896 688.95 496.356 687.82 495.571C686.584 495.908 685.807 496.133 684.543 496.323C685.337 494.264 685.555 493.407 686.9 491.603L689.756 491.212Z"/><path fill="#510F06" d="M680.669 527.402C684.166 529.723 689.187 535.302 687.475 539.802C684.082 538.543 680.407 537.953 676.841 537.231C678.178 533.979 679.454 530.702 680.669 527.402Z"/><path fill="#6F230E" d="M688.709 553.77C687.69 552.055 687.555 550.07 688.162 548.231C690.894 546.368 692.77 548.046 695.171 549.376L695.902 549.928L695.831 550.842C695.903 552.882 696.41 555.305 696.285 557.152C693.429 557.326 693.17 557.383 691.212 559.772L690.423 559.546C690.091 556.879 690.217 555.854 688.709 553.77Z"/><path fill="#764629" d="M666.919 464.57L669.276 462.565C675.172 468.993 684.367 476.47 688.468 463.296L690.145 464.922C684.505 474.766 678.88 472.87 670.207 467.793C668.997 468.451 668.885 469.818 668.236 471.515L667.784 470.741C667.647 468.038 667.559 467.192 666.919 464.57Z"/><path fill="#9A979D" d="M637.459 480.587C638.979 481.856 640.977 483.416 642.264 484.836C642.443 486.981 642.907 490.764 642.685 492.745L641.579 493.25L640.699 493.747L640.318 496.057C639.949 493.146 640.233 492.792 637.699 491.844C637.851 487.569 637.749 484.868 637.459 480.587Z"/><path fill="#6F230E" d="M697.192 487.892C699.045 493.526 697.591 495.208 694.364 500.036C693.731 497.547 694.312 496.008 693.17 493.826C692.314 492.041 691.932 491.616 691.819 489.643C693.554 488.034 694.364 488.403 697.192 487.892Z"/><path fill="#9A979D" d="M670.089 477.258C670.857 474.385 670.225 475.232 672.244 473.38C677.83 471.631 678.952 476.236 686.823 473.389L687.205 474.059C684.305 477.831 676.691 474.965 672.255 476.967L671.051 478.604L670.089 477.258Z"/><path fill="#472A18" d="M682.66 508.034C681.346 498.466 683.495 502.613 689.054 496.755L688.203 499.76C684.506 501.792 684.151 504.117 682.66 508.034Z"/><path fill="#D4D4D6" d="M660.497 503.007C663.444 502.083 665.167 501.311 668.265 501.42L668.45 502.004C666.606 503.445 666.325 503.533 664.301 504.534L662.299 504.79L660.497 503.007Z"/><path fill="#981B03" d="M623.773 518.96C625.715 518.53 627.032 518.274 629.002 518.016L629.509 519.05C627.813 523.855 629.595 526.228 630.44 531.02C630.712 532.559 627.241 533.198 627.394 534.46C627.714 540.792 629.367 544.13 629.475 550.842C629.636 554.262 629.878 557.097 629.428 560.52L628.966 563.643C626.916 576.502 622.288 589.83 617.39 601.933C612.818 611.303 612.248 620.368 610.798 630.665C604.033 629.943 606.228 634.026 602.979 639.354C601.286 638.195 601.098 637.93 599.1 637.322C596.474 639.764 596.312 640.009 594.751 643.332C592.029 641.725 588.471 640.695 586.323 639.035L583.317 637.854L583.61 639.112C579.112 645.229 576.645 649.408 570.4 653.918C568.353 653.866 564.671 653.484 563.043 654.355L562.82 654.762C562.13 650.902 559.031 647.181 554.946 647.251L554.114 648.589C553.799 646.386 553.397 645.311 552.724 643.231C550.058 638.947 547.974 633.794 546.125 629.124C543.82 624.776 542.515 621.998 541.244 617.272C541.995 613.512 542.219 612.725 543.812 609.247L546.538 605.654L549.404 606.851L550.384 607.031C551.883 607.317 552.599 607.624 554.023 608.165L555.061 607.84C556.796 606.321 557.681 605.99 559.704 604.976C560.396 602.361 560.384 602.225 562.201 600.323L562.808 598.701C563.524 598.451 564.19 597.74 564.85 597.187L564.57 595.626C566.168 589.913 567.876 589.731 573.048 586.583C574.179 584.087 574.791 581.55 576.01 578.96C577.379 576.052 579.86 572.808 580.907 569.967C578.001 565.815 581.058 557.767 584.165 554.722L585.629 555.22L586.253 554.908C588.447 552.957 590.511 535.076 595.969 531.093C599.819 528.284 601.139 525.816 607.126 524.683C607.883 524.539 610.695 523.002 612.379 522.637L613.22 522.523C616.367 522.124 616.588 522.169 619.295 520.422C620.783 519.585 622.12 519.369 623.773 518.96Z"/><path fill="#AE3806" d="M623.773 518.96C625.715 518.53 627.032 518.274 629.002 518.016L629.509 519.05C627.813 523.855 629.595 526.228 630.44 531.02C630.712 532.559 627.241 533.198 627.394 534.46C627.714 540.792 629.367 544.13 629.475 550.842C629.636 554.262 629.878 557.097 629.428 560.52L628.966 563.643C626.916 576.502 622.288 589.83 617.39 601.933C613.821 600.451 614.093 600.163 613.238 596.866C609.639 595.608 608.58 595.444 604.837 595.907C603.162 593.573 602.036 593.355 602.09 591.155L604.415 589.809C597.986 588.85 597.747 589.561 593.123 584.629C589.936 587.057 590.063 589.999 588.455 593.639C585.188 585.811 581.865 563.059 585.629 555.22L586.253 554.908C588.447 552.957 590.511 535.076 595.969 531.093C599.819 528.284 601.139 525.816 607.126 524.683C607.883 524.539 610.695 523.002 612.379 522.637L613.22 522.523C616.367 522.124 616.588 522.169 619.295 520.422C620.783 519.585 622.12 519.369 623.773 518.96Z"/><path fill="#510F06" d="M585.629 555.22L586.253 554.908C592.32 557.162 586.79 571.232 591.171 575.807C594.616 573.767 594.745 567.628 597.462 564.672C601.33 570.478 591.721 582.012 593.123 584.629C589.936 587.057 590.063 589.999 588.455 593.639C585.188 585.811 581.865 563.059 585.629 555.22Z"/><path d="M604.415 589.809C611.484 587.8 610.747 584.573 615.999 581.836L616.791 582.257C616.83 585.949 614.133 592.826 613.238 596.866C609.639 595.608 608.58 595.444 604.837 595.907C603.162 593.573 602.036 593.355 602.09 591.155L604.415 589.809Z"/><path fill="#981B03" d="M628.966 563.643C625.998 564 626.335 564.449 624.213 563.292C621.31 558.175 622.881 551.323 629.475 550.842C629.636 554.262 629.878 557.097 629.428 560.52L628.966 563.643Z"/><path fill="#F6F4F7" d="M619.295 520.422C621.297 522.803 622.888 524.185 623.523 527.183L622.92 527.365C617.902 522.988 618.794 522.311 612.454 524.782L611.755 524.169L612.379 522.637L613.22 522.523C616.367 522.124 616.588 522.169 619.295 520.422Z"/><path d="M619.764 530.755C621.733 530.799 623.318 530.396 624.497 532.169C626.881 535.756 626.956 537.815 623.943 540.61L623.012 540.564L622.145 538.759C620.315 538.44 617.79 539.277 615.876 539.749C611.075 537.335 609.476 535.964 605.71 532.418C611.88 532.614 613.705 532.036 619.764 530.755Z"/><path fill="#F5AE5D" d="M609.734 548.961C613.823 552.258 614.32 556.834 613.321 561.662C608.046 556.893 607.675 555.714 609.734 548.961Z"/><path d="M562.201 600.323C562.98 600.999 564.246 602.221 565.094 602.639C570.94 605.267 577.194 610.07 580.966 615.213C584.227 618.907 585.864 620.135 589.842 623.105C588.831 628.865 587.751 633.378 586.323 639.035L583.317 637.854L583.61 639.112C579.112 645.229 576.645 649.408 570.4 653.918C568.353 653.866 564.671 653.484 563.043 654.355L562.82 654.762C562.13 650.902 559.031 647.181 554.946 647.251L554.114 648.589C553.799 646.386 553.397 645.311 552.724 643.231C550.058 638.947 547.974 633.794 546.125 629.124C543.82 624.776 542.515 621.998 541.244 617.272C541.995 613.512 542.219 612.725 543.812 609.247L546.538 605.654L549.404 606.851L550.384 607.031C551.883 607.317 552.599 607.624 554.023 608.165L555.061 607.84C556.796 606.321 557.681 605.99 559.704 604.976C560.396 602.361 560.384 602.225 562.201 600.323Z"/><path fill="#3A0B05" d="M562.201 600.323C562.98 600.999 564.246 602.221 565.094 602.639C570.94 605.267 577.194 610.07 580.966 615.213L577.239 614.571L575.976 614.903L575.405 616.172C573.772 622.64 567.635 622.176 564.945 628.04C564.819 628.975 564.608 629.423 564.312 630.325L563.116 630.885C560.805 629.888 560.013 627.769 559.27 625.538L556.853 625.149L555.793 626.223C554.546 627.51 554.782 627.43 552.982 627.882C550.753 627.108 550.373 626.46 548.757 624.777L546.125 629.124C543.82 624.776 542.515 621.998 541.244 617.272C541.995 613.512 542.219 612.725 543.812 609.247L546.538 605.654L549.404 606.851L550.384 607.031C551.883 607.317 552.599 607.624 554.023 608.165L555.061 607.84C556.796 606.321 557.681 605.99 559.704 604.976C560.396 602.361 560.384 602.225 562.201 600.323Z"/><path fill="#510F06" d="M546.538 605.654L549.404 606.851C550.206 609.068 551.234 611.277 551.151 613.586L550.236 614.719L550.507 615.376C550.431 619.895 552.935 620.747 548.757 624.777L546.125 629.124C543.82 624.776 542.515 621.998 541.244 617.272C541.995 613.512 542.219 612.725 543.812 609.247L546.538 605.654Z"/><path fill="#260201" d="M546.538 605.654L549.404 606.851C550.206 609.068 551.234 611.277 551.151 613.586L550.236 614.719C547.65 613.507 545.863 611.319 543.812 609.247L546.538 605.654Z"/><path fill="#472A18" d="M550.507 615.376C552.57 615.036 553.107 614.846 554.995 613.934C556.5 614.622 556.088 614.276 557.05 615.515C558.898 617.995 559.782 619.46 559.992 622.664L560.128 623.339C561.567 626.404 561.315 627.412 564.945 628.04C564.819 628.975 564.608 629.423 564.312 630.325L563.116 630.885C560.805 629.888 560.013 627.769 559.27 625.538L556.853 625.149L555.793 626.223C554.546 627.51 554.782 627.43 552.982 627.882C550.753 627.108 550.373 626.46 548.757 624.777C552.935 620.747 550.431 619.895 550.507 615.376Z"/><path fill="#543721" d="M559.992 622.664C556.667 620.94 555.497 618.893 557.05 615.515C558.898 617.995 559.782 619.46 559.992 622.664Z"/><path fill="#472A18" d="M562.201 600.323C562.98 600.999 564.246 602.221 565.094 602.639C565.414 604.373 565.683 605.505 565.779 607.279L566.909 607.433C567.995 609.19 567.977 609.408 567.074 611.512C564.988 609.881 564.754 609.57 562.312 608.734C561.164 610.163 559.44 612.034 558.865 613.704C557.534 611.358 556.648 610.024 555.061 607.84C556.796 606.321 557.681 605.99 559.704 604.976C560.396 602.361 560.384 602.225 562.201 600.323Z"/><path d="M562.201 600.323C562.98 600.999 564.246 602.221 565.094 602.639C565.414 604.373 565.683 605.505 565.779 607.279C562.138 608.061 562.209 607.305 559.704 604.976C560.396 602.361 560.384 602.225 562.201 600.323Z"/><path fill="#543721" d="M558.865 613.704C559.44 612.034 561.164 610.163 562.312 608.734C563.057 609.989 563.522 610.878 564.434 612.031C564.748 616.127 567.638 617.002 566.132 621.814L565.199 622.321C561.539 620.198 560.602 617.445 558.865 613.704Z"/><path fill="#645562" d="M562.312 608.734C564.754 609.57 564.988 609.881 567.074 611.512C568.684 612.58 570.126 613.193 570.745 614.926C568.44 616.025 566.14 613.475 564.434 612.031C563.522 610.878 563.057 609.989 562.312 608.734Z"/><path fill="#3A0B05" d="M579.329 631.511L581.695 630.324C584.321 631.584 583.42 635.071 583.317 637.854L583.61 639.112C579.112 645.229 576.645 649.408 570.4 653.918C568.353 653.866 564.671 653.484 563.043 654.355L562.82 654.762C562.13 650.902 559.031 647.181 554.946 647.251L554.114 648.589C553.799 646.386 553.397 645.311 552.724 643.231C555.573 642.981 558.924 643.761 561.811 644.254C564.284 642.354 566.989 640.396 569.238 638.266C572.967 639.2 576.715 643.947 579.78 639.304C579.992 636.364 580.035 634.34 579.329 631.511Z"/><path fill="#510F06" d="M569.238 638.266C569.33 633.579 572.975 631.751 571.015 627.314C570.151 625.36 570.619 625.031 571.31 623.864C573.213 623.099 573.453 622.84 575.526 622.888L575.781 623.556C575.595 625.825 575.053 628.339 576.175 630.166C577.354 630.731 578.105 631.055 579.329 631.511C580.035 634.34 579.992 636.364 579.78 639.304C576.715 643.947 572.967 639.2 569.238 638.266Z"/><path fill="#262629" d="M575.526 622.888L576.082 620.519L577.014 620.181C580.26 622.476 580.374 624.953 579.041 628.343L578.017 629.129C576.137 628.002 576.091 625.639 575.781 623.556L575.526 622.888Z"/><path fill="#4B4748" d="M575.405 616.172L575.976 614.903L577.239 614.571C581.182 618.918 583.993 621.964 587.19 626.929C582.74 623.17 579.514 620.286 575.405 616.172Z"/><path fill="#3A0B05" d="M564.57 595.626C565.848 594.307 567.43 592.239 569.108 591.986C574.619 594.133 586.29 609.538 587.865 615.035L587.358 616.061C580.042 615.202 581.198 603.348 573.909 603.77C569.761 604.011 568.449 598.085 564.85 597.187L564.57 595.626Z"/><path fill="#260201" d="M588.455 593.639C590.063 589.999 589.936 587.057 593.123 584.629C597.747 589.561 597.986 588.85 604.415 589.809L602.09 591.155C602.036 593.355 603.162 593.573 604.837 595.907C600.062 597.213 597.809 592.872 595.324 589.596C595.044 592.485 595.291 596.212 592.565 597.635C590.464 596.89 589.799 595.484 588.455 593.639Z"/><path fill="#FCFCFB" d="M623.64 634.364C629.728 632.458 630.979 632.242 637.467 634.679C639.711 636.424 643.65 639.302 645.18 641.427L642.168 645.778L642.327 646.771L640.987 648.96L637.248 655.35L638.853 654.876C643.149 655.295 650.914 658.242 650.605 663.498L651.257 663.838C654.831 661.762 655.885 667.102 662.472 663.637C664.603 662.453 668.799 659.138 670.918 657.558L671.047 657.394L672.512 657.441C675.635 657.935 676.678 658.169 679.66 659.201C683.547 662.006 684.28 662.346 685.556 666.789L686.113 666.657C685.605 673.547 685.285 678.528 686.281 685.383C685 687.478 683.089 690.83 681.658 692.687C680.617 695.624 679.938 697.473 679.243 700.55C672.684 700.275 650.737 699.074 645.629 700.013C641.673 701.432 640.167 699.525 635.68 700.788C631.922 705.16 629.079 704.408 623.733 705.405C621.854 705.755 614.649 706.882 613.215 706.556C599.529 703.448 603.55 694.429 587.387 691.869C585.597 692.666 582.486 693.486 580.528 694.068C579.569 688.11 579.472 685.617 576.548 680.281C575.746 676.016 577.211 668.772 577.943 664.29C579.341 655.391 584.747 645.515 583.61 639.112L583.317 637.854L586.323 639.035C588.471 640.695 592.029 641.725 594.751 643.332C596.312 640.009 596.474 639.764 599.1 637.322C601.098 637.93 601.286 638.195 602.979 639.354C604.599 642.357 602.078 642.2 603.496 645.519C605.084 646.813 607.255 647.031 609.306 647.142C609.333 648.08 609.404 648.827 609.3 649.753C610.969 651.081 610.971 651.253 613.105 651.763C614.896 643.019 616.845 639.653 623.64 634.364Z"/><path fill="#981B03" d="M599.1 637.322C601.098 637.93 601.286 638.195 602.979 639.354C604.599 642.357 602.078 642.2 603.496 645.519C605.084 646.813 607.255 647.031 609.306 647.142C609.333 648.08 609.404 648.827 609.3 649.753C610.969 651.081 610.971 651.253 613.105 651.763C611.957 673.799 611.388 678.514 590.905 689.35L587.387 691.869C585.597 692.666 582.486 693.486 580.528 694.068C579.569 688.11 579.472 685.617 576.548 680.281C575.746 676.016 577.211 668.772 577.943 664.29C579.341 655.391 584.747 645.515 583.61 639.112L583.317 637.854L586.323 639.035C588.471 640.695 592.029 641.725 594.751 643.332C596.312 640.009 596.474 639.764 599.1 637.322Z"/><path fill="#262629" d="M599.1 637.322C601.098 637.93 601.286 638.195 602.979 639.354C604.599 642.357 602.078 642.2 603.496 645.519C605.084 646.813 607.255 647.031 609.306 647.142C609.333 648.08 609.404 648.827 609.3 649.753C605.287 651.349 606.354 653.684 600.778 655.585C593.56 668.87 591.511 667.076 577.943 664.29C579.341 655.391 584.747 645.515 583.61 639.112L583.317 637.854L586.323 639.035C588.471 640.695 592.029 641.725 594.751 643.332C596.312 640.009 596.474 639.764 599.1 637.322Z"/><path fill="#6F230E" d="M599.1 637.322C601.098 637.93 601.286 638.195 602.979 639.354C604.599 642.357 602.078 642.2 603.496 645.519C605.084 646.813 607.255 647.031 609.306 647.142C609.333 648.08 609.404 648.827 609.3 649.753C605.287 651.349 606.354 653.684 600.778 655.585C600.688 650.609 600.584 641.902 599.1 637.322Z"/><path fill="#260201" d="M576.548 680.281C579.489 680.145 579.562 680.604 581.69 679.255C582.061 677.246 581.698 676.332 581.261 674.355C583.752 669.457 593.973 674.685 596.547 677.526C596.335 678.849 596.649 678.521 595.923 679.219C593.527 681.521 592.108 686.096 590.905 689.35L587.387 691.869C585.597 692.666 582.486 693.486 580.528 694.068C579.569 688.11 579.472 685.617 576.548 680.281Z"/><path fill="#260201" d="M672.512 657.441C675.635 657.935 676.678 658.169 679.66 659.201C683.547 662.006 684.28 662.346 685.556 666.789L686.113 666.657C685.605 673.547 685.285 678.528 686.281 685.383C685 687.478 683.089 690.83 681.658 692.687C680.617 695.624 679.938 697.473 679.243 700.55C672.684 700.275 650.737 699.074 645.629 700.013C646.853 695.108 648.389 692.739 651.854 689.188C662.289 678.515 669.399 678.977 675.39 663.396C674.491 660.428 674.259 660.013 672.512 657.441Z"/><path fill="#4B4748" d="M645.629 700.013C646.853 695.108 648.389 692.739 651.854 689.188C658.303 692.356 673.711 691.508 681.658 692.687C680.617 695.624 679.938 697.473 679.243 700.55C672.684 700.275 650.737 699.074 645.629 700.013Z"/><path fill="#AE3806" d="M672.512 657.441C675.635 657.935 676.678 658.169 679.66 659.201C683.547 662.006 684.28 662.346 685.556 666.789C681.415 668.221 680.065 664.315 675.39 663.396C674.491 660.428 674.259 660.013 672.512 657.441Z"/><path d="M638.853 654.876C643.149 655.295 650.914 658.242 650.605 663.498L651.257 663.838C650.362 666.787 648.243 671.201 646.397 673.708C643.817 677.041 643.845 677.909 643.827 682.181C634.812 673.663 630.746 679.706 623.306 687.043C624.658 681.047 627.741 673.604 629.962 667.772C632.062 664.314 633.353 661.922 635.125 658.282L635.086 657.585L637.248 655.35L638.853 654.876Z"/><path fill="#8E7973" d="M638.853 654.876C643.149 655.295 650.914 658.242 650.605 663.498C648.694 661.723 647.443 659.726 645.063 661.35C645.225 663.184 646.219 663.59 647.802 665.317C643.829 664.964 638.536 660.644 635.125 658.282L635.086 657.585L637.248 655.35L638.853 654.876Z"/><path d="M637.248 655.35L638.853 654.876C640.384 656.303 641.806 657.201 642.142 659.164C640.019 660.201 637.153 658.512 635.086 657.585L637.248 655.35Z"/><path fill="#8E7973" d="M634.29 661.75C639.163 662.34 643.452 666.24 646.775 669.584C642.595 669 637.123 664.808 634.29 661.75Z"/><path fill="#808081" d="M632.672 665.502C637.716 665.999 641.551 669.328 645.041 672.653C640.689 671.771 636.275 668.128 632.672 665.502Z"/><path fill="#262629" d="M629.962 667.772C627.741 673.604 624.658 681.047 623.306 687.043C630.746 679.706 634.812 673.663 643.827 682.181C643.465 685.169 642.81 687.075 641.278 689.732C629.867 688.087 623.475 699.506 619.556 685.349C619.316 676.568 622.355 671.697 629.962 667.772Z"/><path fill="#D4D4D6" d="M619.556 685.349C623.475 699.506 629.867 688.087 641.278 689.732C638.15 693.162 635.81 694.452 636.362 699.299C631.352 700.767 624.668 699.682 619.762 698.191C617.288 695.11 617.835 688.883 619.556 685.349Z"/><path fill="#F6F4F7" d="M646.397 673.708C648.289 685.66 647.99 692.761 636.362 699.299C635.81 694.452 638.15 693.162 641.278 689.732C642.81 687.075 643.465 685.169 643.827 682.181C643.845 677.909 643.817 677.041 646.397 673.708Z"/><path fill="#510F06" d="M713.293 599.397C717.524 599.526 722.51 599.552 726.644 600.082L731.262 600.101C728.473 607.523 720.191 621.08 727.35 627.026C727.558 632.327 727.78 635.318 726.08 640.503L723.593 646.75C720.911 656.089 716.82 675.427 703.086 671.718C700.491 671.017 698.801 669.96 696.89 668.132C691.692 660.242 692.049 654.968 691.518 645.876C695.595 643.48 695.222 636.49 695.86 632.508C696.445 628.855 699.913 627.399 702.837 625.414L702.738 624.5C700.972 622.742 699.674 620.748 697.659 620.573C696.179 621.988 694.848 623.362 693.428 624.837C695.435 616.806 696.139 614.23 700.717 607.236C702.654 606.787 706.198 606.844 708.297 606.8C710.125 605.269 711.531 603.781 713.202 602.077L713.293 599.397Z"/><path fill="#260201" d="M712.273 651.727C714.609 650.521 720.596 648.17 723.593 646.75C720.911 656.089 716.82 675.427 703.086 671.718C700.491 671.017 698.801 669.96 696.89 668.132C701.235 664.482 699.697 662.222 705.56 663.514C707.48 658.06 706.97 659.549 703.941 655.367C704.497 652.866 704.584 653.41 706.526 651.206C706.326 649.721 706.244 649.794 706.869 648.453C709.158 650.338 709.538 650.6 712.273 651.727Z"/><path fill="#3A0B05" d="M705.56 663.514C707.48 658.06 706.97 659.549 703.941 655.367C704.497 652.866 704.584 653.41 706.526 651.206C706.326 649.721 706.244 649.794 706.869 648.453C709.158 650.338 709.538 650.6 712.273 651.727C707.646 656.764 710.321 657.857 710.622 664.281C708.326 666.594 707.789 664.454 705.56 663.514Z"/><path fill="#260201" d="M713.293 599.397C717.524 599.526 722.51 599.552 726.644 600.082L731.262 600.101C728.473 607.523 720.191 621.08 727.35 627.026C725.687 632.341 722.563 637.03 716.585 637.348C715.119 636.732 715.041 636.799 713.894 635.738C715.365 628.798 719.798 617.244 722.366 610.477C718.775 608.106 717.705 607.399 714.578 604.356C714.443 604.156 713.801 602.289 713.699 602.007L713.202 602.077L713.293 599.397Z"/><path fill="#7A5A4A" d="M713.293 599.397C717.524 599.526 722.51 599.552 726.644 600.082C723.464 602.171 723.399 602.52 721.098 605.485L720.365 606.413C718.158 604.625 716.363 602.813 713.699 602.007L713.202 602.077L713.293 599.397Z"/><path fill="#7A5A4A" d="M714.578 604.356C717.705 607.399 718.775 608.106 722.366 610.477C719.798 617.244 715.365 628.798 713.894 635.738C713.934 637.979 713.318 639.272 711.518 640.491L709.96 640.062C708.183 637.762 708.75 638.213 708.439 634.778C708.621 633.315 708.854 632.538 709.237 631.106C709.405 628.903 709.891 626.494 710.261 624.294C711.872 619.493 714.045 613.364 716.171 608.863C713.78 607.676 714.3 608.505 713.378 606.696L714.578 604.356Z"/><path fill="#8E7973" d="M716.171 608.863C717.856 613.059 712.759 628.517 709.237 631.106C709.405 628.903 709.891 626.494 710.261 624.294C711.872 619.493 714.045 613.364 716.171 608.863Z"/><path d="M717.337 645.531C720.222 642.466 721.698 639.648 726.08 640.503L723.593 646.75C720.596 648.17 714.609 650.521 712.273 651.727C709.538 650.6 709.158 650.338 706.869 648.453C711.241 645.252 711.905 645.535 717.337 645.531Z"/><path fill="#260201" d="M708.439 634.778C708.014 637.439 708.463 637.444 706.961 639.067L705.997 638.472C704.129 632.941 705.257 627.547 710.261 624.294C709.891 626.494 709.405 628.903 709.237 631.106C708.854 632.538 708.621 633.315 708.439 634.778Z"/><path fill="#842753" d="M631.693 555.791C632.292 566.078 632.299 573.429 644.214 576.724L645.094 575.817L645.365 574.584L647.327 574.006C649.532 574.381 649.376 574.344 651.504 573.595L652.226 574.524C654.329 577.22 655.727 578.88 658.041 581.393C660.97 585.416 661.298 587.386 666.506 587.957L666.044 593.027L664.842 597.157C661.481 603.511 661.615 604.219 654.031 603.71L653.833 604.145C648.855 602.642 638.738 608.08 633.599 610.405C630.319 608.505 628.84 607.554 625.164 606.334C624.842 608.893 624.381 613.784 623.631 616.048L622.221 617.754C622.441 618.965 622.613 619.997 622.766 621.218L623.839 624.486C624.719 627.165 625.736 628.291 627.444 630.559L622.023 630.91L623.64 634.364C616.845 639.653 614.896 643.019 613.105 651.763C610.971 651.253 610.969 651.081 609.3 649.753C609.404 648.827 609.333 648.08 609.306 647.142C607.255 647.031 605.084 646.813 603.496 645.519C602.078 642.2 604.599 642.357 602.979 639.354C606.228 634.026 604.033 629.943 610.798 630.665C612.248 620.368 612.818 611.303 617.39 601.933C622.288 589.83 626.916 576.502 628.966 563.643L629.428 560.52L630.22 562.523C630.549 560.52 631.238 557.832 631.693 555.791Z"/><defs><linearGradient id="gradient_1" gradientUnits="userSpaceOnUse" x1="613.71375" y1="602.24097" x2="630.60974" y2="608.50531"><stop offset="0" stop-color="black"/><stop offset="1" stop-color="#220605"/></linearGradient></defs><path fill="url(#gradient_1)" d="M629.428 560.52L630.22 562.523C632.312 569.216 628.066 571.738 632.816 576.01C631.923 584.009 623.669 577.715 628.999 592.975C627.693 593.658 627.608 593.677 626.248 594.173C623.462 598.504 626.589 601.194 629.946 603.388C627.994 605.404 626.982 604.404 625.164 606.334C624.842 608.893 624.381 613.784 623.631 616.048L622.221 617.754C622.441 618.965 622.613 619.997 622.766 621.218L623.839 624.486C624.719 627.165 625.736 628.291 627.444 630.559L622.023 630.91L623.64 634.364C616.845 639.653 614.896 643.019 613.105 651.763C610.971 651.253 610.969 651.081 609.3 649.753C609.404 648.827 609.333 648.08 609.306 647.142C607.255 647.031 605.084 646.813 603.496 645.519C602.078 642.2 604.599 642.357 602.979 639.354C606.228 634.026 604.033 629.943 610.798 630.665C612.248 620.368 612.818 611.303 617.39 601.933C622.288 589.83 626.916 576.502 628.966 563.643L629.428 560.52Z"/><path fill="#510F06" d="M602.979 639.354C606.228 634.026 604.033 629.943 610.798 630.665C609.176 631.845 609.277 631.742 608.42 633.561C609.183 636.425 611.014 636.619 611.588 638.945C612.238 641.579 609.32 644.423 609.306 647.142C607.255 647.031 605.084 646.813 603.496 645.519C602.078 642.2 604.599 642.357 602.979 639.354Z"/><path fill="#764629" d="M622.766 621.218L623.839 624.486C624.719 627.165 625.736 628.291 627.444 630.559L622.023 630.91C618.788 627.599 619.377 624.029 622.766 621.218Z"/><path fill="#2480DC" d="M654.031 603.71L653.649 602.411C655.112 598.642 662.154 592.717 666.044 593.027L664.842 597.157C661.481 603.511 661.615 604.219 654.031 603.71Z"/><path fill="#FCFCFB" d="M645.094 575.817C648.733 576.132 650.357 575.663 652.445 578.87C652.035 582.824 647.055 583.039 644.465 581.008C643.725 579.3 643.377 578.641 644.214 576.724L645.094 575.817Z"/><path d="M677.408 583.914L677.673 585.178C682.023 586.284 686.282 588.267 689.181 591.831L690.689 591.567C691.944 592.242 692.139 592.266 693.232 593.15L694.3 592.705C697.681 594.451 696.82 597.269 699.277 600.103L699.607 602.752C699.391 605.473 699.367 604.512 700.717 607.236C696.139 614.23 695.435 616.806 693.428 624.837C694.848 623.362 696.179 621.988 697.659 620.573C699.674 620.748 700.972 622.742 702.738 624.5L702.837 625.414C699.913 627.399 696.445 628.855 695.86 632.508C695.222 636.49 695.595 643.48 691.518 645.876C686.528 649.361 686.619 660.774 686.113 666.657L685.556 666.789C684.28 662.346 683.547 662.006 679.66 659.201C679.963 657.52 680.691 654.93 681.115 653.209C681.361 650.662 685.154 645.632 685.736 642.73C686.795 637.448 687.649 631.931 688.505 626.625C688.892 624.07 688.981 623.217 687.737 621.439L685.922 621.267C681.756 620.663 679.884 619.464 676.357 617.309L676.564 615.902L678.842 611.18C674.182 609.88 670.547 607.31 667.058 604.066C666.964 603.365 667.093 602.585 667.153 601.844C669.863 594.15 666.399 590.644 673.335 584.571L677.408 583.914Z"/><path fill="#543721" d="M677.408 583.914L677.673 585.178C682.023 586.284 686.282 588.267 689.181 591.831L690.689 591.567C691.944 592.242 692.139 592.266 693.232 593.15C686.559 592.566 690.127 594.56 685.685 599.093L684.467 600.882C682.839 603.652 680.021 608.11 679.214 611.064L678.842 611.18C674.182 609.88 670.547 607.31 667.058 604.066C666.964 603.365 667.093 602.585 667.153 601.844C669.863 594.15 666.399 590.644 673.335 584.571L677.408 583.914Z"/><path fill="#8E7973" d="M674.257 592.667C678.312 592.3 683.423 595.942 685.685 599.093C681.264 598.792 676.964 596.11 674.257 592.667Z"/><path fill="#8E7973" d="M677.673 585.178C682.023 586.284 686.282 588.267 689.181 591.831C684.716 590.944 680.67 588.605 677.673 585.178Z"/><path fill="#8E7973" d="M667.058 604.066C670.199 604.972 677.538 608.126 678.842 611.18C674.182 609.88 670.547 607.31 667.058 604.066Z"/><path fill="#260201" d="M679.214 611.064C680.021 608.11 682.839 603.652 684.467 600.882C686.133 601.459 688.47 601.782 688.998 603.633C690.101 607.494 690.53 610.73 686.993 613.288C683.29 613.866 682.737 612.305 679.214 611.064Z"/><path fill="#260201" d="M676.357 617.309C679.884 619.464 681.756 620.663 685.922 621.267L687.737 621.439C688.981 623.217 688.892 624.07 688.505 626.625C687.649 631.931 686.795 637.448 685.736 642.73C685.154 645.632 681.361 650.662 681.115 653.209C680.691 654.93 679.963 657.52 679.66 659.201C676.678 658.169 675.635 657.935 672.512 657.441L671.047 657.394L670.918 657.558C668.799 659.138 664.603 662.453 662.472 663.637C655.885 667.102 654.831 661.762 651.257 663.838L650.605 663.498C650.914 658.242 643.149 655.295 638.853 654.876L637.248 655.35L640.987 648.96L642.327 646.771L642.168 645.778C646.165 647.058 653.523 650.439 655.741 654.033C656.623 652.59 656.786 652.059 657.431 650.521L658.332 648.316C658.638 647.349 659.557 645.778 660.066 644.817C659.319 642.408 657.647 641.845 657.707 638.578C659.409 638.089 661.179 639.319 663.423 640.122C664.119 638.294 665.65 635.82 666.649 634.051C668.49 632.131 670.749 627.449 671.752 624.991L672.088 624.319C673.178 622.816 675.301 619.047 676.357 617.309Z"/><path fill="#3A0B05" d="M676.749 636.78C677.987 642.416 679.001 647.825 681.115 653.209C680.691 654.93 679.963 657.52 679.66 659.201C676.678 658.169 675.635 657.935 672.512 657.441L671.047 657.394C676.362 654.972 676.29 642.225 676.749 636.78Z"/><path d="M667.682 649.061C668.703 652.483 669.51 654.355 670.918 657.558C668.799 659.138 664.603 662.453 662.472 663.637C661.176 662.591 661.593 663.056 660.816 661.55C660.931 657.127 665.008 652.657 667.682 649.061Z"/><path fill="#8E7973" d="M642.168 645.778C646.165 647.058 653.523 650.439 655.741 654.033C652.975 654.048 654.318 652.887 649.833 652.723L649.164 653.354C650.109 655.668 651.757 656.983 653.545 658.783C648.706 656.463 644.24 654.847 641.446 650.244L640.987 648.96L642.327 646.771L642.168 645.778Z"/><path fill="#260201" d="M642.327 646.771C644.462 647.814 645.82 648.165 646.972 650.207L646.92 651.538C644.395 652.544 643.73 651.612 641.446 650.244L640.987 648.96L642.327 646.771Z"/><path fill="#3A0B05" d="M685.922 621.267L687.737 621.439C688.981 623.217 688.892 624.07 688.505 626.625C686.7 627.176 686.281 627.512 684.466 627.071C683.901 625.501 685.192 623.19 685.922 621.267Z"/><path fill="#543721" d="M662.6 607.19C665.906 607.877 672.935 612.458 675.845 614.511L676.564 615.902L676.357 617.309C675.301 619.047 673.178 622.816 672.088 624.319L671.752 624.991C667.691 622.648 662.418 619.82 658.86 616.965L659.269 615.671C662.11 612.792 662.118 611.283 662.6 607.19Z"/><path fill="#8E7973" d="M662.6 607.19C665.906 607.877 672.935 612.458 675.845 614.511L676.564 615.902C672.585 615.789 664.544 610.752 662.6 607.19Z"/><path fill="#8E7973" d="M659.269 615.671C662.318 617.205 670.872 621.389 672.088 624.319L671.752 624.991C667.691 622.648 662.418 619.82 658.86 616.965L659.269 615.671Z"/><path fill="#510F06" d="M656.805 620.847C657.12 618.553 657.307 618.609 658.86 616.965C662.418 619.82 667.691 622.648 671.752 624.991C670.749 627.449 668.49 632.131 666.649 634.051L665.042 634.459C663.181 630.503 657.155 628.138 653.293 626.668L652.687 625.62C653.632 623.847 654.514 623.764 656.497 622.517L656.805 620.847Z"/><path fill="#8E7973" d="M656.805 620.847C662.307 623.708 665.476 625.701 670.026 630.015C664.598 627.859 661.356 625.846 656.497 622.517L656.805 620.847Z"/><path fill="#3A0B05" d="M637.467 634.679C641.004 635.187 644.285 636.383 646.317 639.51L648.152 637.826C650.943 639.795 656.842 644.319 660.066 644.817C659.557 645.778 658.638 647.349 658.332 648.316L657.431 650.521C656.786 652.059 656.623 652.59 655.741 654.033C653.523 650.439 646.165 647.058 642.168 645.778L645.18 641.427C643.65 639.302 639.711 636.424 637.467 634.679Z"/><path fill="#3A0B05" d="M646.317 639.51L648.152 637.826C650.943 639.795 656.842 644.319 660.066 644.817C659.557 645.778 658.638 647.349 658.332 648.316C653.553 645.048 649.991 644.866 646.317 639.51Z"/><path fill="#8E7973" d="M637.467 634.679C641.004 635.187 644.285 636.383 646.317 639.51C649.991 644.866 653.553 645.048 658.332 648.316L657.431 650.521C653.826 648.03 647.804 644.448 645.18 641.427C643.65 639.302 639.711 636.424 637.467 634.679Z"/><path fill="#2480DC" d="M633.599 610.405C638.738 608.08 648.855 602.642 653.833 604.145C646.906 612.673 635.092 611.47 625.682 616.089C625.532 616.163 623.829 616.058 623.631 616.048C624.381 613.784 624.842 608.893 625.164 606.334C628.84 607.554 630.319 608.505 633.599 610.405Z"/><path fill="#981B03" d="M627.444 630.559C638.124 631.892 639.229 624.271 647.165 636.174L648.152 637.826L646.317 639.51C644.285 636.383 641.004 635.187 637.467 634.679C630.979 632.242 629.728 632.458 623.64 634.364L622.023 630.91L627.444 630.559Z"/><path fill="#8E7973" d="M649.348 631.849C654.899 633.621 660.451 634.784 663.423 640.122C661.179 639.319 659.409 638.089 657.707 638.578C657.647 641.845 659.319 642.408 660.066 644.817C656.842 644.319 650.943 639.795 648.152 637.826L647.165 636.174C649.759 637.541 652.2 638.814 655.286 638.346L655.728 636.902C654.295 634.526 651.792 633.372 649.348 631.849Z"/><path fill="#8E7973" d="M653.293 626.668C657.155 628.138 663.181 630.503 665.042 634.459C661.837 633.911 654.522 629.72 653.293 626.668Z"/><path fill="#2480DC" d="M642.955 613.154C645.231 613.561 645.21 613.467 647.276 614.754C649.235 618.587 646.11 619.93 643.057 621.541C640.705 622.103 640.734 622.554 639.12 621.697C639.196 619.793 642.084 616.266 642.955 613.154Z"/><path d="M771.697 467.517C774.225 465.767 776.147 464.644 778.796 463.13C777.592 470.623 778.03 480.143 778.141 487.871L778.576 521.415L779.314 684.639C779.4 710.016 779.481 735.549 779.631 760.939C779.646 763.34 778.973 771.37 778.035 773.317C769.517 790.995 748.387 805 732.917 816.519C725.494 847.392 716.724 892.856 688.948 912.374C682.131 917.164 669.915 917.784 661.893 916.023C647.163 912.79 638.345 892.202 643.717 878.731C654.197 852.449 689.236 831.824 712.733 818.153C719.23 797.157 726.24 769.722 730.224 747.932C720.42 767.859 696.652 818.212 677.654 829.562C672.38 829.563 670.334 829.279 665.088 828.383C656.75 833.021 651.428 831.628 642.822 833.968C633.662 836.594 624.611 840.071 615.681 843.369C613.51 844.171 605.501 846.592 604.257 847.541C591.813 857.033 577.939 859.786 567.861 845.149C566.419 843.055 565.59 837.84 566.357 835.253C568.936 828.647 574.528 822.37 577.289 816.003C587.463 792.539 601.285 768.69 610.916 745.181C598.518 748.827 589.105 752.89 577.513 756.638C559.92 752.292 567.428 752.973 557.472 742.369L556.883 742.701L556.493 744.969C553.625 739.826 555.015 661.279 554.114 648.589L554.946 647.251C559.031 647.181 562.13 650.902 562.82 654.762C561.842 672.081 563.287 690.112 562.718 707.482C562.674 708.817 560.695 710.577 560.231 712.482C560.904 712.35 561.577 712.219 562.25 712.088C562.82 714.939 562.878 725.344 563.098 729.13C567.346 727.552 572.627 727.042 577.653 726.218C593.575 723.606 609.402 718.266 624.309 712.099C627.516 710.772 630.169 709.855 633.297 709.139C640.686 711.357 646.225 714.579 649.381 722.146C654.124 733.517 643.311 739.693 639.048 748.55C627.483 772.574 615.431 796.41 604.152 820.576C619.222 815.267 633.972 810.621 648.131 803.158C652.506 800.853 657.397 803.976 661.044 806.58C664.664 780.149 669.778 758.166 679.007 733.074C681.902 725.204 680.209 716.34 692.794 718.333C697.852 719.134 699.97 722.52 698.68 727.416C696.018 737.366 692.362 747.047 689.546 756.961C684.095 774.449 680.604 791.679 678.196 809.764C687.876 802.318 695.534 793.176 701.988 782.883C715.442 761.249 724.831 738.11 736.247 715.287C740.172 707.442 748.953 705.357 755.614 712.465C756.538 713.451 756.74 717.288 756.324 718.643C753.571 727.601 750.377 736.464 748.234 745.619C743.555 764.748 739.837 784.135 735.936 803.428C744.731 797.655 756.099 790.299 762.3 781.591C765.605 776.949 766.961 771.34 771.252 767.416C771.658 748.648 771.281 728.528 771.252 709.649L770.716 585.883L770.566 521.511C770.546 510.754 770.947 494.859 769.925 484.537C766.898 486.421 764.435 485.342 762.813 487.105C764.139 488.892 764.268 488.881 764.886 491.106C763.877 496.933 762.272 493.577 758.957 495.945L759.574 499.576C758.432 498.252 757.58 497.259 756.598 495.796L755.899 494.745C761.335 481.861 763.364 478.406 771.697 467.517ZM669.832 882.161C687.175 888.969 699.239 856.662 704.177 845.272C705.286 842.715 707.11 837.677 706.611 834.979C694.556 843.118 659.42 864.781 669.832 882.161Z"/><path d="M642.523 379.491C656.149 378.945 671.286 379.058 684.887 379.502C695.495 379.849 700.809 389.09 689.314 395.756C676.493 397.248 661.018 396.035 647.976 396.204C635.961 396.36 631.382 386.999 642.523 379.491Z"/><path d="M453.777 680.783C470.325 679.919 488.504 686.61 476.797 706.055C452.678 698.202 439.419 704.807 416.744 714.808C415.451 723.112 410.42 736.601 407.495 744.723C402.824 757.47 398.254 770.254 393.784 783.073C407.553 778.911 428.13 771.227 437.012 787.698C439.403 792.132 440.874 799.243 435.397 801.966C434.874 801.776 434.351 801.589 433.827 801.405C431.471 800.578 423.417 797.813 421.305 797.733C409.104 797.268 395.26 804.282 384.841 809.314C379.856 826.448 376.743 837.959 373.4 855.482C389.525 851.561 415.002 849.335 427.333 863.87C432.677 870.17 432.414 877.984 431.454 885.744C420.48 880.108 413.676 877.653 401.322 877.209C370.596 878.021 354.958 890.611 339.84 916.398C322.062 894.775 336.21 880.342 353.69 866.15C353.211 863.868 352.554 860.555 352.952 858.242C361.033 811.212 384.828 767.701 397.951 722.265C389.773 724.835 376.781 729.44 368.653 725.198C364.325 722.94 355.637 713.254 358.6 707.883C364.427 707.663 372.909 708.306 378.4 707.036C402.236 701.524 430.857 685.213 453.777 680.783Z"/><path d="M499.983 753.898C513.416 753.052 515.994 758.657 521.001 769.609C524.428 762.756 530.873 750.564 541.433 754.876C542.389 754.943 544.081 757.9 543.962 758.665C542.025 771.106 536.27 783.739 533.03 795.796C529.757 807.976 524.762 820.533 527.93 833.058C530.191 837.792 534.97 834.409 536.851 834.227C546.543 833.285 556.292 803.33 562.527 804.874C568.05 814.528 545.57 844.732 538.881 851.688C528.743 859.67 516.842 862.052 509.322 848.898C507.383 845.506 506.775 841.725 505.916 837.928C496.576 852.216 477.377 875.951 456.162 865.415C451.695 863.196 448.156 856.23 447.261 851.333C442.822 827.052 451.424 801.137 464.265 780.669C473.111 766.917 484.021 757.296 499.983 753.898ZM480.777 835.103C493.466 830.429 500.092 823.646 505.793 811.376C510.133 802.036 518.916 776.478 500.97 776.293C492.274 779.503 487.887 782.735 482.276 790.101C475.048 799.589 459.817 832.437 480.777 835.103Z"/><path d="M927.094 763.688C930.032 763.699 931.633 763.57 933.687 765.821C933.937 769.177 917.721 810.323 915.504 816.92C919.679 814.085 926.755 809.123 929.659 804.902C931.643 802.018 932.455 799.029 935.045 795.914C937.688 795.745 940.328 798.117 939.844 800.731C938.081 810.239 926.321 819.885 919.584 826.043C930.608 846.341 934.267 826.365 942.978 820.854L943.886 821.084C944.192 825.922 936.574 838.186 932.468 840.828C922.248 847.404 916.111 838.655 910.944 831.034C910.127 834.115 908.813 844.715 907.518 845.164C896.7 848.917 901.969 832.328 902.37 830.598C891.786 840.693 862.137 865.969 860.509 834.916C852.14 842.05 839.514 853.148 827.829 852.826C817.577 852.544 819.053 839.909 819.751 833.002C822.302 824.77 823.472 822.267 828.33 814.07C834.617 803.462 854.932 791.995 858.07 811.011C859.316 818.561 848.949 830.69 842.509 834.378C838.796 836.504 834.08 833.368 830.467 837.379C830.353 840.873 835.517 841.016 838.135 840.923C860.569 840.287 863.002 817.644 875.204 804.245C889.199 788.878 910.011 801.464 896.195 818.643C894.411 820.862 888.774 821.727 886.731 818.728C887.188 814.589 891.894 812.02 890.598 808.539C880.168 803.908 867.189 834.385 875.276 837.464C883.371 840.546 898.374 830.505 902.96 823.238C907.438 816.141 910.273 806.675 913.477 798.356L927.094 763.688ZM835.612 828.154C841.085 825.731 845.454 822.729 848.091 817.075C849.137 814.832 848.781 812.095 846.281 811.067C841.577 813.961 831.5 820.943 834.197 827.254L835.612 828.154Z"/><path d="M554.517 548.207L553.893 447.603C553.876 431.051 553.151 411.611 554.987 395.32C558.938 360.261 596.277 364.688 622.036 364.9L666.054 364.852L716.841 364.728C726.553 364.724 739.826 364.17 749.206 365.754C787.84 372.279 776.162 417.212 778.145 444.413L778.213 445.29C775.092 445.218 773.127 445.314 770.073 444.544L770.115 420.583C770.135 375.517 763.927 372.37 719.426 372.492L676.251 372.935C648.975 373.186 621.617 372.876 594.116 373.164C555.894 373.566 562.702 403.957 561.918 431.509C561.767 436.787 562.002 442.282 562.044 447.596L562.506 529.957L563.196 540.072L562.204 540.28L558.378 538.432C557.696 541.274 557.147 548.176 556.193 549.674L555.351 549.635L554.517 548.207Z"/><path fill="#543721" d="M562.506 529.957L563.196 540.072L562.204 540.28C560.093 537.412 555.978 534.759 557.123 531.02C559.509 529.574 559.28 530.064 562.506 529.957Z"/><path fill="#FEC683" d="M754.038 456.7C754.43 446.982 760.145 440.935 770.073 444.544C773.127 445.314 775.092 445.218 778.213 445.29C784.761 450.022 784.426 457.778 778.796 463.13C776.147 464.644 774.225 465.767 771.697 467.517C763.364 478.406 761.335 481.861 755.899 494.745C751.667 497.128 747.226 499.299 743.786 502.696C741.815 502.754 741.238 503.526 739.691 504.791L738.717 504.431C737.089 503.105 735.76 502.138 734.04 500.93C731.863 500.26 729.757 499.258 727.652 498.351C726.073 497.121 725.624 497.047 725.04 495.155C726.49 491.139 727.071 489.585 727.83 485.351C728.783 481.8 729.657 475.532 733.194 474.321C734.496 473.931 735.559 473.673 736.886 473.368C741.184 468.927 736.939 465.446 746.335 464.696C748.086 464.556 747.745 458.048 748.588 455.704C750.126 456.073 751.399 456.387 752.979 456.578L754.038 456.7Z"/><path fill="#E99E67" d="M733.194 474.321C734.496 473.931 735.559 473.673 736.886 473.368C741.184 468.927 736.939 465.446 746.335 464.696C748.086 464.556 747.745 458.048 748.588 455.704C750.126 456.073 751.399 456.387 752.979 456.578L754.038 456.7C756.643 457.246 756.179 456.773 757.949 458.316C758.296 462.543 752.779 464.456 751.259 468.486C751.53 470.395 751.612 470.405 752.427 472.187C751.281 475.217 750.039 475.819 750.035 478.786L751.102 479.11C752.649 480.204 753.302 480.569 754.664 481.911C756.124 484.369 756.279 483.711 755.805 485.774L754.601 486.678C753.477 486.362 752.347 486.069 751.211 485.797C748.067 488.078 739.814 500.842 738.717 504.431C737.089 503.105 735.76 502.138 734.04 500.93C731.863 500.26 729.757 499.258 727.652 498.351C726.073 497.121 725.624 497.047 725.04 495.155C726.49 491.139 727.071 489.585 727.83 485.351C728.783 481.8 729.657 475.532 733.194 474.321Z"/><path fill="#F5AE5D" d="M727.83 485.351C728.783 481.8 729.657 475.532 733.194 474.321C739.433 481.262 738.29 482.937 733.577 490.896C731.479 488.311 730.731 487.032 727.83 485.351Z"/><path fill="#FEC683" d="M727.83 485.351C730.731 487.032 731.479 488.311 733.577 490.896C731.387 494.431 730.834 495.439 727.652 498.351C726.073 497.121 725.624 497.047 725.04 495.155C726.49 491.139 727.071 489.585 727.83 485.351Z"/><path fill="#F5AE5D" d="M751.102 479.11C751.853 478.175 751.617 476.456 752.085 475.408C752.861 473.672 756.495 472.231 758.145 471.17C761.806 468.815 762.645 462.427 766.832 461.009C769.377 461.45 770.345 461.802 770.641 464.34C769.352 466.272 766.293 466.659 763.984 468.076C763.153 469.856 763.271 469.762 763.619 471.729L764.563 472.185C768.246 471.145 766.783 469.578 771.697 467.517C763.364 478.406 761.335 481.861 755.899 494.745C751.667 497.128 747.226 499.299 743.786 502.696C741.815 502.754 741.238 503.526 739.691 504.791L738.717 504.431C739.814 500.842 748.067 488.078 751.211 485.797C752.347 486.069 753.477 486.362 754.601 486.678L755.805 485.774C756.279 483.711 756.124 484.369 754.664 481.911C753.302 480.569 752.649 480.204 751.102 479.11Z"/><path d="M853.608 762.692C858.433 762.209 869.703 763.483 868.605 770.86C868.023 774.586 863.234 773.436 860.343 773.212C853.123 772.651 837.376 773.749 831.159 777.26C832.765 782.01 834.065 781.484 831.779 787.083C823.086 808.381 811.705 828.921 805.916 851.283C804.907 855.18 805.45 857.643 803.11 861.304C801.096 862.49 802.119 862.341 799.974 861.973C794.171 857.338 795.471 852.117 797.334 846.125C806.433 823.069 817.731 801.691 826.676 778.277C821.307 779.422 786.555 787.615 791.545 772.947C797.038 771.573 803.302 773.032 809.218 771.949C824.122 769.221 838.685 765.378 853.608 762.692Z"/><path fill="#543721" d="M554.517 548.207L555.351 549.635L556.193 549.674C557.147 548.176 557.696 541.274 558.378 538.432L562.204 540.28L563.196 540.072C563.466 547.358 563.083 558.469 564.121 565.017L565.3 568.519C566.221 573.633 566.65 576.492 565.624 581.788C564.189 587.789 562.76 592.537 562.808 598.701L562.201 600.323C560.384 602.225 560.396 602.361 559.704 604.976C557.681 605.99 556.796 606.321 555.061 607.84L554.023 608.165C552.599 607.624 551.883 607.317 550.384 607.031L549.404 606.851L546.538 605.654L546.657 603.217C546.545 603.032 546.434 602.848 546.323 602.664L545.79 601.73C543.837 598.342 543.67 597.351 542.66 593.653L539.57 586.79C536.353 580.34 534.146 575.687 532.241 568.742C532.47 566.558 532.739 565.222 534.204 563.776C536.928 564.564 536.693 566.241 539.932 568.307C543.685 566.411 537.679 563.083 539.631 557.9L540.862 557.365C541.311 557.554 541.981 557.793 542.226 558.156C545.827 563.484 546.795 562.319 547.399 568.073C548.898 568.376 548.967 568.425 550.479 568.348L551.029 567.084C550.668 564.275 548.097 560.224 546.648 557.558C550.001 556.288 549.582 555.924 550.896 552.851C551.191 555.131 551.138 555.504 552.345 557.544L553.146 557.265C554.485 553.981 554.37 551.701 554.517 548.207Z"/><path fill="#260201" d="M558.152 591.484C560.399 588.144 561.78 582.553 565.624 581.788C564.189 587.789 562.76 592.537 562.808 598.701L562.201 600.323C560.384 602.225 560.396 602.361 559.704 604.976C557.681 605.99 556.796 606.321 555.061 607.84L554.023 608.165C552.599 607.624 551.883 607.317 550.384 607.031L549.404 606.851L546.538 605.654L546.657 603.217C546.545 603.032 546.434 602.848 546.323 602.664L545.79 601.73C543.837 598.342 543.67 597.351 542.66 593.653L539.57 586.79C542.227 586.394 543.876 588.609 545.718 590.478C547.321 591.433 548.026 592.273 549.995 591.431C552.502 591.128 555.584 591.376 558.152 591.484Z"/><path fill="#543721" d="M542.66 593.653C544.738 595.626 546.787 597.63 548.807 599.663C551.579 599.03 554.355 598.415 557.135 597.816C556.274 598.572 554.819 599.897 553.828 600.401C550.879 601.902 547.53 599.843 546.657 603.217C546.545 603.032 546.434 602.848 546.323 602.664L545.79 601.73C543.837 598.342 543.67 597.351 542.66 593.653Z"/><path d="M532.241 568.742C532.47 566.558 532.739 565.222 534.204 563.776C536.928 564.564 536.693 566.241 539.932 568.307C543.685 566.411 537.679 563.083 539.631 557.9L540.862 557.365C541.311 557.554 541.981 557.793 542.226 558.156C545.827 563.484 546.795 562.319 547.399 568.073C545.914 570.281 539.41 573.166 536.76 572.456C534.958 569.484 535.834 570.155 532.241 568.742Z"/><path fill="#3A0B05" d="M565.3 568.519C564.44 570.436 563.149 573.599 560.98 574.126C560.531 573.632 557.71 565.092 557.702 563.867L558.657 563.156C560.986 563.202 562.044 563.971 564.121 565.017L565.3 568.519Z"/><path fill="#472A18" d="M545.718 590.478C548.23 586.712 548.349 583.963 549.938 579.834L549.995 591.431C548.026 592.273 547.321 591.433 545.718 590.478Z"/><path fill="#B0A096" d="M535.873 573.371C540.615 575.458 541.533 579.102 541.08 583.841C537.691 581.959 536.505 576.91 535.873 573.371Z"/><path d="M780.314 781.804C783.215 781.923 783.292 781.47 785.401 782.786C786.358 787.993 784.415 807.173 783.924 813.379L780.511 857.464C776.815 858.055 772.497 858.285 768.708 858.581C768.963 852.32 769.671 844.927 770.135 838.597C771.085 828.051 771.746 817.319 772.614 806.739C766.697 811.19 763.041 813.66 756.259 816.602C756.316 812.265 756.682 807.94 756.991 803.613C769.85 794.232 769.794 792.128 780.314 781.804Z"/><path fill="#764629" d="M717.386 512.045L719.44 513.986C721.918 515.289 728.638 518.65 730.518 520.13C728.629 523.898 726.653 527.623 724.593 531.301L723.136 533.71C721.504 536.542 718.928 541.389 716.868 543.68C713.741 541.279 709.705 539.546 706.125 537.811C704.225 537.83 705.003 537.47 703.621 538.585L703.051 538.838L702.548 536.141C706.576 531.811 713.239 518.244 717.386 512.045Z"/><path fill="#764629" d="M719.44 513.986C721.918 515.289 728.638 518.65 730.518 520.13C728.629 523.898 726.653 527.623 724.593 531.301C721.297 530.001 716.289 527.329 713.473 525.277C715.994 521.466 717.485 518.104 719.44 513.986Z"/><path fill="#7A5A4A" d="M717.386 512.045L719.44 513.986C717.485 518.104 715.994 521.466 713.473 525.277L711.837 525.028L711.159 525.599C711.762 526.626 711.465 526.441 712.356 527.055C709.383 531.438 709.896 533.444 706.125 537.811C704.225 537.83 705.003 537.47 703.621 538.585L703.051 538.838L702.548 536.141C706.576 531.811 713.239 518.244 717.386 512.045Z"/><path fill="#B0A096" d="M712.356 527.055C711.465 526.441 711.762 526.626 711.159 525.599L711.837 525.028L713.473 525.277C716.289 527.329 721.297 530.001 724.593 531.301L723.136 533.71C720.03 530.459 716.356 528.95 712.356 527.055Z"/><path fill="#764629" d="M725.04 495.155C725.624 497.047 726.073 497.121 727.652 498.351C729.757 499.258 731.863 500.26 734.04 500.93C735.76 502.138 737.089 503.105 738.717 504.431L739.691 504.791C741.238 503.526 741.815 502.754 743.786 502.696L739.056 507.271C734.665 510.905 733.834 513.266 731.674 518.362L730.518 520.13C728.638 518.65 721.918 515.289 719.44 513.986L717.386 512.045L717.58 511.386C720.512 506.573 721.844 504.424 723.848 499.169L725.04 495.155Z"/><path fill="#F6F4F7" d="M725.04 495.155C725.624 497.047 726.073 497.121 727.652 498.351C729.757 499.258 731.863 500.26 734.04 500.93C735.76 502.138 737.089 503.105 738.717 504.431L739.691 504.791C741.238 503.526 741.815 502.754 743.786 502.696L739.056 507.271C736.077 505.014 727.563 501.029 723.848 499.169L725.04 495.155Z"/><path fill="#B0A096" d="M717.58 511.386C723.052 513.729 726.75 516.056 731.674 518.362L730.518 520.13C728.638 518.65 721.918 515.289 719.44 513.986L717.386 512.045L717.58 511.386Z"/><path fill="#543721" d="M542.308 546.722C541.233 542.601 538.804 536.149 542.116 532.657L543.394 532.852C547.247 536.248 547.446 540.391 548.609 545.539C545.784 546.806 545.409 546.841 542.308 546.722Z"/><path fill="#472A18" d="M548.609 545.539C549.97 548.67 550.215 549.501 550.896 552.851C549.582 555.924 550.001 556.288 546.648 557.558C545.181 554.284 543.656 550.118 542.308 546.722C545.409 546.841 545.784 546.806 548.609 545.539Z"/></svg>